<svg version="1.1" id="Layer_1" xmlns="http://www.w3.org/2000/svg" xmlns:xlink="http://www.w3.org/1999/xlink" x="0px" y="0px"
     width="1510.4px" height="450.2px" viewBox="0 0 1510.4 450.2" style="enable-background:new 0 0 1510.4 450.2;"
     xml:space="preserve">
<style type="text/css">
	.st0{fill:#1434CB;}
	.st1{fill:#231F20;}
	.st2{fill:#F79410;}
	.st3{fill:#FF5F00;}
	.st4{fill:#EB001B;}
	.st5{fill:#F79E1B;}
</style>
    <g>
	<path class="st0" d="M531,111.6c-52.1,0-98.7,27-98.7,76.9c0,57.2,82.6,61.2,82.6,89.9c0,12.1-13.9,22.9-37.6,22.9
		c-33.6,0-58.7-15.1-58.7-15.1l-10.8,50.3c0,0,28.9,12.8,67.4,12.8c57,0,101.8-28.3,101.8-79.1c0-60.5-82.9-64.3-82.9-91
		c0-9.5,11.4-19.9,35-19.9c26.7,0,48.4,11,48.4,11l10.5-48.6C588,121.8,564.4,111.6,531,111.6z M54.4,115.2l-1.3,7.3
		c0,0,21.9,4,41.7,12c25.4,9.2,27.2,14.5,31.5,31.1l46.6,179.8h62.5l96.3-230.3h-62.4l-61.9,156.6l-25.3-132.7
		c-2.3-15.2-14.1-23.9-28.4-23.9C153.8,115.2,54.4,115.2,54.4,115.2z M356.9,115.2l-48.9,230.3h59.5l48.8-230.3L356.9,115.2
		L356.9,115.2z M688.7,115.2c-14.3,0-21.9,7.7-27.5,21.1L574,345.5h62.4l12.1-34.9h76l7.3,34.9h55l-48-230.3H688.7z M696.8,177.4
		l18.5,86.4h-49.5L696.8,177.4z"/>
</g>
    <g>
	<path class="st1" d="M1387.4,373.8v0.8h0.8c0.1,0,0.3,0,0.4-0.1c0.1-0.1,0.2-0.2,0.2-0.3c0-0.1-0.1-0.2-0.2-0.3
		c-0.1-0.1-0.3-0.1-0.4-0.1L1387.4,373.8L1387.4,373.8z M1388.2,373.2c0.3,0,0.6,0.1,0.9,0.3c0.2,0.2,0.3,0.4,0.3,0.7
		c0,0.2-0.1,0.5-0.3,0.6c-0.2,0.2-0.5,0.3-0.7,0.3l1,1.2h-0.8l-0.9-1.1h-0.3v1.1h-0.7v-3.1L1388.2,373.2L1388.2,373.2z M1388,377.3
		c0.3,0,0.7-0.1,1-0.2c0.3-0.1,0.6-0.3,0.8-0.6c0.2-0.2,0.4-0.5,0.6-0.8c0.3-0.6,0.3-1.4,0-2c-0.1-0.3-0.3-0.6-0.6-0.8
		c-0.2-0.2-0.5-0.4-0.8-0.6c-0.3-0.1-0.7-0.2-1-0.2c-0.3,0-0.7,0.1-1,0.2c-0.3,0.1-0.6,0.3-0.8,0.6c-0.7,0.8-0.9,1.9-0.5,2.8
		c0.1,0.3,0.3,0.6,0.5,0.8c0.2,0.2,0.5,0.4,0.8,0.6C1387.3,377.3,1387.6,377.4,1388,377.3 M1388,371.5c0.9,0,1.8,0.3,2.4,1
		c0.3,0.3,0.6,0.7,0.7,1.1c0.4,0.8,0.4,1.7,0,2.6c-0.2,0.4-0.4,0.8-0.7,1.1c-0.3,0.3-0.7,0.5-1.1,0.7c-0.4,0.2-0.9,0.3-1.3,0.3
		c-0.5,0-0.9-0.1-1.3-0.3c-0.4-0.2-0.8-0.4-1.1-0.7c-0.3-0.3-0.5-0.7-0.7-1.1c-0.4-0.8-0.4-1.7,0-2.6c0.2-0.4,0.4-0.8,0.7-1.1
		c0.3-0.3,0.7-0.5,1.1-0.7C1387.1,371.5,1387.5,371.4,1388,371.5 M1076.9,359.6c0-5.9,3.8-10.7,10.1-10.7c6,0,10,4.6,10,10.7
		c0,6.1-4,10.7-10,10.7C1080.8,370.3,1076.9,365.4,1076.9,359.6 M1103.9,359.6v-16.7h-7.2v4.1c-2.3-3-5.8-4.9-10.5-4.9
		c-9.3,0-16.7,7.3-16.7,17.5s7.3,17.5,16.7,17.5c4.7,0,8.2-1.9,10.5-4.9v4h7.2L1103.9,359.6L1103.9,359.6z M1348.9,359.6
		c0-5.9,3.8-10.7,10.1-10.7c6,0,10,4.6,10,10.7c0,6.1-4,10.7-10,10.7C1352.7,370.3,1348.9,365.4,1348.9,359.6 M1375.9,359.6v-30.1
		h-7.3V347c-2.3-3-5.8-4.9-10.5-4.9c-9.3,0-16.7,7.3-16.7,17.5s7.3,17.5,16.7,17.5c4.7,0,8.2-1.9,10.5-4.9v4h7.3V359.6z
		 M1193.9,348.6c4.7,0,7.7,2.9,8.4,8.1H1185C1185.8,351.8,1188.7,348.6,1193.9,348.6 M1194.1,342.1c-9.8,0-16.6,7.1-16.6,17.5
		c0,10.6,7.1,17.5,17.1,17.5c5,0,9.6-1.3,13.7-4.7l-3.6-5.4c-2.8,2.2-6.4,3.5-9.7,3.5c-4.7,0-8.9-2.2-10-8.2h24.8
		c0.1-0.9,0.1-1.8,0.1-2.8C1209.8,349.2,1203.4,342.1,1194.1,342.1 M1281.6,359.6c0-5.9,3.8-10.7,10.1-10.7c6,0,10,4.6,10,10.7
		c0,6.1-4,10.7-10,10.7C1285.4,370.3,1281.6,365.4,1281.6,359.6 M1308.6,359.6v-16.7h-7.2v4.1c-2.3-3-5.8-4.9-10.5-4.9
		c-9.3,0-16.7,7.3-16.7,17.5s7.3,17.5,16.7,17.5c4.7,0,8.2-1.9,10.5-4.9v4h7.2L1308.6,359.6L1308.6,359.6z M1240.6,359.6
		c0,10.1,7,17.5,17.8,17.5c5,0,8.4-1.1,12-4l-3.5-5.9c-2.7,2-5.6,3-8.7,3c-5.8-0.1-10-4.3-10-10.7s4.3-10.6,10-10.7c3.1,0,6,1,8.7,3
		l3.5-5.9c-3.6-2.9-7-4-12-4C1247.7,342.1,1240.6,349.5,1240.6,359.6 M1334.1,342.1c-4.2,0-6.9,2-8.8,4.9v-4h-7.2v33.3h7.3v-18.7
		c0-5.5,2.4-8.6,7.1-8.6c1.6,0,3.1,0.3,4.5,0.8l2.2-6.8C1337.7,342.4,1335.6,342.1,1334.1,342.1 M1139.8,345.6
		c-3.5-2.3-8.3-3.5-13.6-3.5c-8.4,0-13.9,4-13.9,10.7c0,5.4,4,8.8,11.5,9.8l3.4,0.5c4,0.6,5.9,1.6,5.9,3.5c0,2.6-2.6,4-7.6,4
		c-5,0-8.6-1.6-11.1-3.5l-3.4,5.7c4,2.9,9,4.3,14.4,4.3c9.6,0,15.2-4.5,15.2-10.9c0-5.9-4.4-8.9-11.6-10l-3.4-0.5
		c-3.1-0.4-5.7-1-5.7-3.3c0-2.4,2.4-3.9,6.3-3.9c4.3,0,8.4,1.6,10.4,2.9L1139.8,345.6L1139.8,345.6z M1233.3,342.1
		c-4.2,0-6.9,2-8.8,4.9v-4.1h-7.2v33.3h7.2v-18.7c0-5.5,2.4-8.6,7.1-8.6c1.6,0,3.1,0.3,4.5,0.8l2.2-6.8
		C1236.9,342.4,1234.8,342.1,1233.3,342.1 M1171.4,342.9h-11.9v-10.1h-7.3v10.1h-6.8v6.6h6.8v15.2c0,7.7,3,12.3,11.6,12.3
		c3.1,0,6.8-1,9.1-2.6l-2.1-6.2c-2.2,1.3-4.5,1.9-6.4,1.9c-3.6,0-4.8-2.2-4.8-5.6v-15.1h11.9V342.9z M1063.1,376.3v-20.9
		c0-7.9-5-13.2-13.1-13.3c-4.3-0.1-8.6,1.3-11.7,5.9c-2.3-3.7-5.9-5.9-11-5.9c-3.6,0-7,1-9.8,5v-4.1h-7.3v33.3h7.3v-18.5
		c0-5.8,3.2-8.9,8.2-8.9c4.8,0,7.2,3.1,7.2,8.8v18.6h7.3v-18.5c0-5.8,3.3-8.9,8.2-8.9c5,0,7.3,3.1,7.3,8.8v18.6L1063.1,376.3z"/>
        <path class="st2" d="M1391.5,265.4v-4.9h-1.3l-1.5,3.3l-1.5-3.3h-1.3v4.9h0.9v-3.7l1.4,3.2h0.9l1.4-3.2v3.7H1391.5L1391.5,265.4z
		 M1383.5,265.4v-4h1.6v-0.8h-4.2v0.8h1.6v4L1383.5,265.4L1383.5,265.4z"/>
        <path class="st3" d="M1247.2,286.3h-109.9V88.8h109.9L1247.2,286.3z"/>
        <path class="st4" d="M1144.3,187.5c0-40.1,18.8-75.7,48-98.7c-22.1-17.4-49.4-26.9-77.6-26.8c-69.3,0-125.6,56.2-125.6,125.6
		s56.2,125.6,125.6,125.6c28.2,0,55.5-9.4,77.6-26.8C1163.1,263.3,1144.3,227.6,1144.3,187.5"/>
        <path class="st5" d="M1395.5,187.5c0,69.4-56.2,125.6-125.6,125.6c-28.2,0-55.5-9.4-77.6-26.8c29.2-23,48-58.7,48-98.7
		s-18.8-75.7-48-98.7c22.1-17.4,49.5-26.9,77.6-26.8C1339.3,62,1395.5,118.2,1395.5,187.5"/>
</g>
</svg>